<svg width="27" height="27" viewBox="0 0 27 27" fill="none" xmlns="http://www.w3.org/2000/svg">
<path fill-rule="evenodd" clip-rule="evenodd" d="M1.125 7.875C1.125 7.25368 1.62868 6.75 2.25 6.75H21.9375C22.5588 6.75 23.0625 7.25368 23.0625 7.875V19.125C23.0625 19.7463 22.5588 20.25 21.9375 20.25H2.25C1.62868 20.25 1.125 19.7463 1.125 19.125V7.875ZM3.375 9V18H20.8125V9H3.375Z" fill="#454545"/>
<path fill-rule="evenodd" clip-rule="evenodd" d="M20.8125 11.25C20.8125 10.6287 21.3162 10.125 21.9375 10.125H24.75C25.3713 10.125 25.875 10.6287 25.875 11.25V15.75C25.875 16.3713 25.3713 16.875 24.75 16.875H21.9375C21.3162 16.875 20.8125 16.3713 20.8125 15.75V11.25ZM23.0625 12.375V14.625H23.625V12.375H23.0625Z" fill="#454545"/>
<path fill-rule="evenodd" clip-rule="evenodd" d="M3.9375 16.3125V10.6875H6.1875V16.3125H3.9375Z" fill="#454545"/>
<path fill-rule="evenodd" clip-rule="evenodd" d="M7.3125 16.3125V10.6875H9.5625V16.3125H7.3125Z" fill="#454545"/>
<path fill-rule="evenodd" clip-rule="evenodd" d="M10.6875 16.3125V10.6875H12.9375V16.3125H10.6875Z" fill="#454545"/>
<path fill-rule="evenodd" clip-rule="evenodd" d="M14.0625 16.3125V10.6875H16.3125V16.3125H14.0625Z" fill="#454545"/>
<path fill-rule="evenodd" clip-rule="evenodd" d="M17.4375 16.3125V10.6875H19.6875V16.3125H17.4375Z" fill="#454545"/>
</svg>
