<svg width="30" height="30" viewBox="0 0 30 30" fill="none" xmlns="http://www.w3.org/2000/svg">
<path fill-rule="evenodd" clip-rule="evenodd" d="M6.25 6.875C5.21447 6.875 4.375 7.71447 4.375 8.75V22.5C4.375 23.5355 5.21447 24.375 6.25 24.375H20C21.0355 24.375 21.875 23.5355 21.875 22.5V13.125H24.375V22.5C24.375 24.9162 22.4162 26.875 20 26.875H6.25C3.83375 26.875 1.875 24.9162 1.875 22.5V8.75C1.875 6.33375 3.83375 4.375 6.25 4.375H18.75V6.875H6.25Z" fill="#454545"/>
<path fill-rule="evenodd" clip-rule="evenodd" d="M27.7589 5.25898L13.3839 19.634C12.8957 20.1221 12.1043 20.1221 11.6161 19.634L6.61612 14.634L8.38389 12.8662L12.5 16.9823L25.9911 3.49121L27.7589 5.25898Z" fill="#454545"/>
</svg>
