<svg width="35" height="35" viewBox="0 0 35 35" fill="none" xmlns="http://www.w3.org/2000/svg">
<path fill-rule="evenodd" clip-rule="evenodd" d="M17.5 4.37504C10.2512 4.37504 4.37498 10.2513 4.37498 17.5C4.37498 24.7488 10.2512 30.625 17.5 30.625C24.7487 30.625 30.625 24.7488 30.625 17.5C30.625 10.2513 24.7487 4.37504 17.5 4.37504ZM1.45831 17.5C1.45831 8.64047 8.64041 1.45837 17.5 1.45837C26.3595 1.45837 33.5416 8.64047 33.5416 17.5C33.5416 26.3596 26.3595 33.5417 17.5 33.5417C8.64041 33.5417 1.45831 26.3596 1.45831 17.5Z" fill="#454545"/>
<path fill-rule="evenodd" clip-rule="evenodd" d="M12.8009 13.9352C12.8009 11.5189 14.7597 9.56018 17.1759 9.56018H17.8241C20.2403 9.56018 22.1991 11.5189 22.1991 13.9352V14.2593H19.2824V13.9352C19.2824 13.1298 18.6295 12.4768 17.8241 12.4768H17.1759C16.3705 12.4768 15.7176 13.1298 15.7176 13.9352V14.077C15.7176 14.6294 16.0297 15.1344 16.5237 15.3814L19.7806 17.0098C21.2628 17.7509 22.1991 19.2658 22.1991 20.923V21.0648C22.1991 23.4811 20.2403 25.4398 17.8241 25.4398H17.1759C14.7597 25.4398 12.8009 23.4811 12.8009 21.0648V20.7407H15.7176V21.0648C15.7176 21.8702 16.3705 22.5231 17.1759 22.5231H17.8241C18.6295 22.5231 19.2824 21.8702 19.2824 21.0648V20.923C19.2824 20.3706 18.9703 19.8656 18.4762 19.6186L15.2193 17.9901C13.7372 17.2491 12.8009 15.7342 12.8009 14.077V13.9352Z" fill="#454545"/>
<path fill-rule="evenodd" clip-rule="evenodd" d="M18.9583 7.77783V11.0186H16.0416V7.77783H18.9583Z" fill="#454545"/>
<path fill-rule="evenodd" clip-rule="evenodd" d="M18.9583 23.9816V27.2223H16.0416V23.9816H18.9583Z" fill="#454545"/>
</svg>
