<svg width="16" height="16" viewBox="0 0 16 17" fill="none" xmlns="http://www.w3.org/2000/svg">
<path fill-rule="evenodd" clip-rule="evenodd" d="M6.4149 2.01504C6.91382 0.479518 9.08617 0.47953 9.58509 2.01504L10.6635 5.33403L14.1533 5.33403C15.7678 5.33403 16.4391 7.40005 15.1329 8.34905L12.3096 10.4003L13.388 13.7193C13.8869 15.2548 12.1295 16.5317 10.8233 15.5827L8 13.5314L5.1767 15.5827C3.8705 16.5317 2.11305 15.2548 2.61196 13.7193L3.69037 10.4003L0.867069 8.34905C-0.439125 7.40005 0.232179 5.33403 1.84671 5.33403H5.3365L6.4149 2.01504ZM8 2.53007L6.92159 5.84905C6.69847 6.53576 6.05854 7.00069 5.3365 7.00069H1.84671L4.67001 9.05194C5.25415 9.47634 5.49858 10.2286 5.27546 10.9153L4.19706 14.2343L7.02035 12.1831C7.6045 11.7587 8.39549 11.7587 8.97964 12.1831L11.8029 14.2343L10.7245 10.9153C10.5014 10.2286 10.7458 9.47634 11.33 9.05194L14.1533 7.00069H10.6635C9.94145 7.00069 9.30152 6.53576 9.0784 5.84905L8 2.53007Z" fill="#898989"/>
</svg>
