<svg width="25" height="25" viewBox="0 0 25 25" fill="none" xmlns="http://www.w3.org/2000/svg">
<path fill-rule="evenodd" clip-rule="evenodd" d="M4.6875 2.08329C4.6875 1.508 5.15387 1.04163 5.72917 1.04163H16.1458C16.4478 1.04163 16.7349 1.17267 16.9328 1.40079C17.1306 1.62892 17.2197 1.93167 17.177 2.23061L16.3052 8.33329H19.2708C19.6583 8.33329 20.0137 8.54833 20.1935 8.89151C20.3733 9.2347 20.3478 9.64933 20.1273 9.96789L10.7523 23.5096C10.4929 23.8842 10.0202 24.0468 9.58524 23.9109C9.15032 23.775 8.85417 23.3723 8.85417 22.9166V14.5833H5.72917C5.15387 14.5833 4.6875 14.1169 4.6875 13.5416V2.08329ZM6.77083 3.12496V12.5H9.89583C10.4711 12.5 10.9375 12.9663 10.9375 13.5416V19.582L17.2827 10.4166H15.1042C14.8022 10.4166 14.5151 10.2856 14.3172 10.0575C14.1194 9.82934 14.0303 9.52658 14.073 9.22764L14.9448 3.12496H6.77083Z" fill="#454545"/>
</svg>
