<svg width="17" height="17" viewBox="0 0 17 17" fill="none" xmlns="http://www.w3.org/2000/svg">
<path fill-rule="evenodd" clip-rule="evenodd" d="M3.1533 4.95C3.25377 4.84236 3.39441 4.78125 3.54166 4.78125H13.4583C13.6056 4.78125 13.7462 4.84236 13.8467 4.95C13.9472 5.05764 13.9984 5.20215 13.9883 5.34905L13.28 15.6199C13.2608 15.8984 13.0292 16.1146 12.75 16.1146H11.3333C11.0399 16.1146 10.8021 15.8767 10.8021 15.5833C10.8021 15.2899 11.0399 15.0521 11.3333 15.0521H12.2541L12.8892 5.84375H4.11081L4.74586 15.0521H8.49999C8.79339 15.0521 9.03124 15.2899 9.03124 15.5833C9.03124 15.8767 8.79339 16.1146 8.49999 16.1146H4.24999C3.97078 16.1146 3.73921 15.8984 3.72 15.6199L3.01167 5.34905C3.00154 5.20215 3.05283 5.05764 3.1533 4.95Z" fill="black"/>
<path fill-rule="evenodd" clip-rule="evenodd" d="M0.885406 3.54163C0.885406 3.24822 1.12326 3.01038 1.41666 3.01038H15.5833C15.8767 3.01038 16.1146 3.24822 16.1146 3.54163C16.1146 3.83503 15.8767 4.07288 15.5833 4.07288H1.41666C1.12326 4.07288 0.885406 3.83503 0.885406 3.54163Z" fill="black"/>
<path fill-rule="evenodd" clip-rule="evenodd" d="M8.5 6.552C8.7934 6.552 9.03125 6.78985 9.03125 7.08325V13.4583C9.03125 13.7517 8.7934 13.9895 8.5 13.9895C8.2066 13.9895 7.96875 13.7517 7.96875 13.4583V7.08325C7.96875 6.78985 8.2066 6.552 8.5 6.552Z" fill="black"/>
<path fill-rule="evenodd" clip-rule="evenodd" d="M5.99136 6.55283C6.28431 6.53656 6.53498 6.76085 6.55126 7.0538L6.90543 13.4288C6.9217 13.7217 6.69741 13.9724 6.40446 13.9887C6.11151 14.005 5.86084 13.7807 5.84456 13.4877L5.4904 7.11274C5.47412 6.81979 5.69841 6.56911 5.99136 6.55283Z" fill="black"/>
<path fill-rule="evenodd" clip-rule="evenodd" d="M11.0086 6.55283C10.7157 6.53656 10.465 6.76085 10.4487 7.0538L10.0946 13.4288C10.0783 13.7217 10.3026 13.9724 10.5955 13.9887C10.8885 14.005 11.1392 13.7807 11.1554 13.4877L11.5096 7.11274C11.5259 6.81979 11.3016 6.56911 11.0086 6.55283Z" fill="black"/>
<path fill-rule="evenodd" clip-rule="evenodd" d="M3.71875 2.83329C3.71875 1.75749 4.59086 0.885376 5.66667 0.885376H11.3333C12.4091 0.885376 13.2812 1.75749 13.2812 2.83329V3.54163C13.2812 3.83503 13.0434 4.07288 12.75 4.07288H4.25C3.9566 4.07288 3.71875 3.83503 3.71875 3.54163V2.83329ZM5.66667 1.94788C5.17766 1.94788 4.78125 2.34429 4.78125 2.83329V3.01038H12.2188V2.83329C12.2188 2.34429 11.8223 1.94788 11.3333 1.94788H5.66667Z" fill="black"/>
</svg>
