<svg width="50" height="50" viewBox="0 0 50 50" fill="none" xmlns="http://www.w3.org/2000/svg">
<path fill-rule="evenodd" clip-rule="evenodd" d="M26.1556 9.52425C25.4558 9.05773 24.5442 9.05773 23.8444 9.52425L9.26103 19.2465C8.68145 19.6329 8.33332 20.2833 8.33332 20.9799V39.5833C8.33332 40.7339 9.26606 41.6666 10.4167 41.6666H16.6667V33.3333C16.6667 29.8815 19.4649 27.0833 22.9167 27.0833H27.0833C30.5351 27.0833 33.3333 29.8815 33.3333 33.3333V41.6666H39.5833C40.7339 41.6666 41.6667 40.7339 41.6667 39.5833V20.9799C41.6667 20.2833 41.3185 19.6329 40.7389 19.2465L26.1556 9.52425ZM21.5331 6.05738C23.6325 4.65779 26.3675 4.6578 28.4669 6.05738L43.0502 15.7796C44.7889 16.9388 45.8333 18.8902 45.8333 20.9799V39.5833C45.8333 43.0351 43.0351 45.8333 39.5833 45.8333H31.25C30.0994 45.8333 29.1667 44.9006 29.1667 43.75V33.3333C29.1667 32.1827 28.2339 31.25 27.0833 31.25H22.9167C21.7661 31.25 20.8333 32.1827 20.8333 33.3333V43.75C20.8333 44.9006 19.9006 45.8333 18.75 45.8333H10.4167C6.96488 45.8333 4.16666 43.0351 4.16666 39.5833V20.9799C4.16666 18.8902 5.21104 16.9388 6.94978 15.7796L21.5331 6.05738Z" fill="black"/>
</svg>
