<svg width="30" height="30" viewBox="0 0 30 30" fill="none" xmlns="http://www.w3.org/2000/svg">
<path fill-rule="evenodd" clip-rule="evenodd" d="M2.1875 15C2.1875 14.4822 2.60723 14.0625 3.125 14.0625H18.125C18.6428 14.0625 19.0625 14.4822 19.0625 15C19.0625 15.5178 18.6428 15.9375 18.125 15.9375H3.125C2.60723 15.9375 2.1875 15.5178 2.1875 15Z" fill="#454545"/>
<path fill-rule="evenodd" clip-rule="evenodd" d="M13.0871 9.96209C13.4532 9.59597 14.0468 9.59597 14.4129 9.96209L18.7879 14.3371C19.154 14.7032 19.154 15.2968 18.7879 15.6629L14.4129 20.0379C14.0468 20.404 13.4532 20.404 13.0871 20.0379C12.721 19.6718 12.721 19.0782 13.0871 18.7121L16.7992 15L13.0871 11.2879C12.721 10.9218 12.721 10.3282 13.0871 9.96209Z" fill="#454545"/>
<path fill-rule="evenodd" clip-rule="evenodd" d="M16.875 5.9375C13.3562 5.9375 10.3042 7.94275 8.8022 10.8772C8.5663 11.3381 8.00142 11.5205 7.54052 11.2846C7.07962 11.0487 6.89722 10.4838 7.13313 10.0229C8.9432 6.48647 12.6252 4.0625 16.875 4.0625C18.5893 4.0625 20.214 4.45758 21.6607 5.16253C22.1261 5.38934 22.3196 5.95053 22.0928 6.41597C21.8659 6.88142 21.3048 7.07487 20.8393 6.84805C19.6429 6.26506 18.2986 5.9375 16.875 5.9375ZM25.0677 9.18849C25.5159 8.92924 26.0894 9.08239 26.3487 9.53057C27.2798 11.1403 27.8125 13.0094 27.8125 15C27.8125 21.0406 22.9156 25.9375 16.875 25.9375C12.6252 25.9375 8.9432 23.5135 7.13313 19.9771C6.89722 19.5162 7.07962 18.9513 7.54052 18.7154C8.00142 18.4795 8.5663 18.6619 8.8022 19.1228C10.3042 22.0572 13.3562 24.0625 16.875 24.0625C21.8801 24.0625 25.9375 20.0051 25.9375 15C25.9375 13.3478 25.4962 11.8014 24.7257 10.4694C24.4664 10.0212 24.6196 9.44775 25.0677 9.18849Z" fill="#454545"/>
</svg>
