<svg width="50" height="50" viewBox="0 0 50 50" fill="none" xmlns="http://www.w3.org/2000/svg">
<path fill-rule="evenodd" clip-rule="evenodd" d="M12.5 6.25004C10.7741 6.25004 9.37501 7.64915 9.37501 9.37504C9.37501 11.1009 10.7741 12.5 12.5 12.5C14.2259 12.5 15.625 11.1009 15.625 9.37504C15.625 7.64915 14.2259 6.25004 12.5 6.25004ZM5.20834 9.37504C5.20834 5.34796 8.47293 2.08337 12.5 2.08337C16.5271 2.08337 19.7917 5.34796 19.7917 9.37504C19.7917 13.4021 16.5271 16.6667 12.5 16.6667C8.47293 16.6667 5.20834 13.4021 5.20834 9.37504Z" fill="black"/>
<path fill-rule="evenodd" clip-rule="evenodd" d="M12.5 21.875C10.7741 21.875 9.37501 23.2742 9.37501 25C9.37501 26.7259 10.7741 28.125 12.5 28.125C14.2259 28.125 15.625 26.7259 15.625 25C15.625 23.2742 14.2259 21.875 12.5 21.875ZM5.20834 25C5.20834 20.973 8.47293 17.7084 12.5 17.7084C16.5271 17.7084 19.7917 20.973 19.7917 25C19.7917 29.0271 16.5271 32.2917 12.5 32.2917C8.47293 32.2917 5.20834 29.0271 5.20834 25Z" fill="black"/>
<path fill-rule="evenodd" clip-rule="evenodd" d="M12.5 37.5C10.7741 37.5 9.37501 38.8992 9.37501 40.625C9.37501 42.3509 10.7741 43.75 12.5 43.75C14.2259 43.75 15.625 42.3509 15.625 40.625C15.625 38.8992 14.2259 37.5 12.5 37.5ZM5.20834 40.625C5.20834 36.598 8.47293 33.3334 12.5 33.3334C16.5271 33.3334 19.7917 36.598 19.7917 40.625C19.7917 44.6521 16.5271 47.9167 12.5 47.9167C8.47293 47.9167 5.20834 44.6521 5.20834 40.625Z" fill="black"/>
<path fill-rule="evenodd" clip-rule="evenodd" d="M42.7083 11.4584H23.9583V7.29175H42.7083V11.4584Z" fill="black"/>
<path fill-rule="evenodd" clip-rule="evenodd" d="M42.7083 27.0834H23.9583V22.9167H42.7083V27.0834Z" fill="black"/>
<path fill-rule="evenodd" clip-rule="evenodd" d="M42.7083 42.7084H23.9583V38.5417H42.7083V42.7084Z" fill="black"/>
</svg>
