<svg width="25" height="25" viewBox="0 0 25 25" fill="none" xmlns="http://www.w3.org/2000/svg">
<path fill-rule="evenodd" clip-rule="evenodd" d="M17.7084 13.5416C15.4072 13.5416 13.5417 15.4071 13.5417 17.7083C13.5417 20.0094 15.4072 21.8749 17.7084 21.8749C20.0096 21.8749 21.875 20.0094 21.875 17.7083C21.875 15.4071 20.0096 13.5416 17.7084 13.5416ZM11.4584 17.7083C11.4584 14.2565 14.2566 11.4583 17.7084 11.4583C21.1602 11.4583 23.9584 14.2565 23.9584 17.7083C23.9584 21.16 21.1602 23.9583 17.7084 23.9583C14.2566 23.9583 11.4584 21.16 11.4584 17.7083Z" fill="black"/>
<path fill-rule="evenodd" clip-rule="evenodd" d="M17.22 18.0582L19.2045 15.2799L20.8998 16.4908L18.2956 20.1367C18.1326 20.3649 17.8844 20.5177 17.6072 20.5606C17.3301 20.6035 17.0473 20.5328 16.823 20.3645L14.7396 18.802L15.9896 17.1354L17.22 18.0582Z" fill="black"/>
<path fill-rule="evenodd" clip-rule="evenodd" d="M10.4167 3.12496C8.40313 3.12496 6.77083 4.75725 6.77083 6.77079C6.77083 8.78433 8.40313 10.4166 10.4167 10.4166C12.4302 10.4166 14.0625 8.78433 14.0625 6.77079C14.0625 4.75725 12.4302 3.12496 10.4167 3.12496ZM4.6875 6.77079C4.6875 3.60666 7.25253 1.04163 10.4167 1.04163C13.5808 1.04163 16.1458 3.60666 16.1458 6.77079C16.1458 9.93492 13.5808 12.5 10.4167 12.5C7.25253 12.5 4.6875 9.93492 4.6875 6.77079Z" fill="black"/>
<path fill-rule="evenodd" clip-rule="evenodd" d="M10.4167 12.5C6.38961 12.5 3.12502 15.7645 3.12502 19.7916H1.04169C1.04169 14.614 5.23902 10.4166 10.4167 10.4166V12.5Z" fill="black"/>
</svg>
