<svg width="50" height="50" viewBox="0 0 50 50" fill="none" xmlns="http://www.w3.org/2000/svg">
<path fill-rule="evenodd" clip-rule="evenodd" d="M20.8333 8.33329C13.9298 8.33329 8.33332 13.9297 8.33332 20.8333C8.33332 27.7369 13.9298 33.3333 20.8333 33.3333C27.7369 33.3333 33.3333 27.7369 33.3333 20.8333C33.3333 13.9297 27.7369 8.33329 20.8333 8.33329ZM4.16666 20.8333C4.16666 11.6285 11.6286 4.16663 20.8333 4.16663C30.0381 4.16663 37.5 11.6285 37.5 20.8333C37.5 30.038 30.0381 37.5 20.8333 37.5C11.6286 37.5 4.16666 30.038 4.16666 20.8333Z" fill="black"/>
<path fill-rule="evenodd" clip-rule="evenodd" d="M28.125 20.8333C28.125 16.8063 24.8604 13.5417 20.8333 13.5417V9.375C27.1616 9.375 32.2916 14.5051 32.2916 20.8333H28.125Z" fill="black"/>
<path fill-rule="evenodd" clip-rule="evenodd" d="M32.7231 29.7769L45.2231 42.2769L42.2769 45.2231L29.7769 32.7231L32.7231 29.7769Z" fill="black"/>
</svg>
