<svg width="50" height="50" viewBox="0 0 50 50" fill="none" xmlns="http://www.w3.org/2000/svg">
<path fill-rule="evenodd" clip-rule="evenodd" d="M19.7917 6.24996C19.7917 5.09937 20.7244 4.16663 21.875 4.16663H28.125C29.2756 4.16663 30.2083 5.09937 30.2083 6.24996V9.16384C31.0054 9.42585 31.7758 9.74625 32.5144 10.1199L34.5754 8.05886C35.389 7.24527 36.7081 7.24527 37.5217 8.05886L41.9411 12.4783C42.3318 12.869 42.5513 13.3989 42.5513 13.9514C42.5513 14.504 42.3318 15.0339 41.9411 15.4246L39.8801 17.4856C40.2537 18.2242 40.5741 18.9946 40.8361 19.7916H43.75C44.9006 19.7916 45.8333 20.7244 45.8333 21.875V28.125C45.8333 29.2756 44.9006 30.2083 43.75 30.2083H40.8361C40.5741 31.0054 40.2537 31.7757 39.8801 32.5143L41.9411 34.5754C42.7547 35.389 42.7547 36.708 41.9411 37.5216L37.5217 41.9411C36.7081 42.7547 35.389 42.7547 34.5754 41.9411L32.5144 39.88C31.7758 40.2537 31.0054 40.5741 30.2083 40.8361V43.75C30.2083 44.9006 29.2756 45.8333 28.125 45.8333H21.875C20.7244 45.8333 19.7917 44.9006 19.7917 43.75V40.8361C18.9946 40.5741 18.2242 40.2537 17.4856 39.88L15.4246 41.9411C15.0339 42.3318 14.504 42.5513 13.9514 42.5513C13.3989 42.5513 12.869 42.3318 12.4783 41.9411L8.05889 37.5216C7.2453 36.708 7.2453 35.389 8.05889 34.5754L10.1199 32.5143C9.74628 31.7757 9.42588 31.0054 9.16387 30.2083H6.24999C5.0994 30.2083 4.16666 29.2756 4.16666 28.125V21.875C4.16666 20.7244 5.0994 19.7916 6.24999 19.7916H9.16387C9.42588 18.9946 9.74628 18.2242 10.1199 17.4856L8.05889 15.4246C7.2453 14.611 7.2453 13.2919 8.05889 12.4783L12.4783 8.05886C13.2919 7.24527 14.611 7.24527 15.4246 8.05886L17.4856 10.1199C18.2242 9.74625 18.9946 9.42585 19.7917 9.16384V6.24996ZM23.9583 8.33329V10.7522C23.9583 11.7316 23.2762 12.5787 22.3194 12.7876C20.8547 13.1074 19.4855 13.6844 18.2609 14.47C17.4366 14.9988 16.3553 14.8821 15.6628 14.1897L13.9514 12.4783L12.4783 13.9514L14.1897 15.6628C14.8822 16.3553 14.9989 17.4366 14.47 18.2609C13.6844 19.4855 13.1074 20.8547 12.7877 22.3193C12.5788 23.2762 11.7316 23.9583 10.7523 23.9583H8.33332V26.0416H10.7523C11.7316 26.0416 12.5788 26.7238 12.7876 27.6806C13.1074 29.1453 13.6844 30.5145 14.47 31.739C14.9989 32.5633 14.8822 33.6446 14.1897 34.3371L12.4783 36.0485L13.9514 37.5216L15.6628 35.8103C16.3553 35.1178 17.4366 35.0011 18.2609 35.5299C19.4855 36.3155 20.8547 36.8925 22.3194 37.2123C23.2762 37.4212 23.9583 38.2683 23.9583 39.2477V41.6666H26.0417V39.2477C26.0417 38.2683 26.7238 37.4212 27.6806 37.2123C29.1453 36.8925 30.5145 36.3155 31.7391 35.5299C32.5634 35.0011 33.6447 35.1178 34.3372 35.8103L36.0485 37.5216L37.5217 36.0485L35.8103 34.3371C35.1178 33.6446 35.0011 32.5633 35.5299 31.739C36.3156 30.5145 36.8926 29.1453 37.2123 27.6806C37.4212 26.7238 38.2684 26.0416 39.2477 26.0416H41.6667V23.9583H39.2477C38.2684 23.9583 37.4212 23.2762 37.2123 22.3193C36.8926 20.8547 36.3156 19.4855 35.5299 18.2609C35.0011 17.4366 35.1178 16.3553 35.8103 15.6628L37.5217 13.9514L36.0485 12.4783L34.3372 14.1897C33.6447 14.8821 32.5634 14.9988 31.7391 14.47C30.5145 13.6844 29.1453 13.1074 27.6806 12.7876C26.7238 12.5787 26.0417 11.7316 26.0417 10.7522V8.33329H23.9583Z" fill="black"/>
<path fill-rule="evenodd" clip-rule="evenodd" d="M25 20.8333C22.6988 20.8333 20.8333 22.6988 20.8333 25C20.8333 27.3011 22.6988 29.1666 25 29.1666C27.3012 29.1666 29.1667 27.3011 29.1667 25C29.1667 22.6988 27.3012 20.8333 25 20.8333ZM16.6667 25C16.6667 20.3976 20.3976 16.6666 25 16.6666C29.6024 16.6666 33.3333 20.3976 33.3333 25C33.3333 29.6023 29.6024 33.3333 25 33.3333C20.3976 33.3333 16.6667 29.6023 16.6667 25Z" fill="black"/>
</svg>
