<svg width="37" height="29" viewBox="0 0 37 29" fill="none" xmlns="http://www.w3.org/2000/svg">
<path fill-rule="evenodd" clip-rule="evenodd" d="M4.26898 6.81765C4.4581 6.61503 4.72284 6.5 5 6.5H19C19.2772 6.5 19.5419 6.61503 19.731 6.81765C19.9202 7.02027 20.0167 7.29229 19.9976 7.5688L18.9976 22.0688C18.9615 22.5931 18.5256 23 18 23H6C5.47442 23 5.03853 22.5931 5.00237 22.0688L4.00237 7.5688C3.9833 7.29229 4.07985 7.02027 4.26898 6.81765ZM6.07134 8.5L6.93341 21H17.0666L17.9287 8.5H6.07134Z" fill="#454545"/>
<path fill-rule="evenodd" clip-rule="evenodd" d="M11 19V10H13V19H11Z" fill="#454545"/>
<path fill-rule="evenodd" clip-rule="evenodd" d="M8.00153 19.0555L7.50153 10.0555L9.49845 9.94458L9.99845 18.9446L8.00153 19.0555Z" fill="#454545"/>
<path fill-rule="evenodd" clip-rule="evenodd" d="M15.9985 19.0555L16.4985 10.0555L14.5016 9.94458L14.0016 18.9446L15.9985 19.0555Z" fill="#454545"/>
<path fill-rule="evenodd" clip-rule="evenodd" d="M4 6.5C4 4.84315 5.34315 3.5 7 3.5H17C18.6569 3.5 20 4.84315 20 6.5V7.5C20 8.05228 19.5523 8.5 19 8.5H5C4.44772 8.5 4 8.05228 4 7.5V6.5ZM7 5.5C6.44772 5.5 6 5.94772 6 6.5H18C18 5.94772 17.5523 5.5 17 5.5H7Z" fill="#454545"/>
<path fill-rule="evenodd" clip-rule="evenodd" d="M12 3C11.4477 3 11 3.44772 11 4V4.5H9V4C9 2.34315 10.3431 1 12 1C13.6569 1 15 2.34315 15 4V4.5H13V4C13 3.44772 12.5523 3 12 3Z" fill="#454545"/>
<path fill-rule="evenodd" clip-rule="evenodd" d="M22 8.5H2V6.5H22V8.5Z" fill="#454545"/>
<path fill-rule="evenodd" clip-rule="evenodd" d="M26 21.5V12H24V21.5H26Z" fill="#454545"/>
<path fill-rule="evenodd" clip-rule="evenodd" d="M25 20.5857L22.2071 17.7928L20.7929 19.2071L24.2929 22.7071C24.6834 23.0976 25.3166 23.0976 25.7071 22.7071L29.2071 19.2071L27.7929 17.7928L25 20.5857Z" fill="#454545"/>
</svg>
